G04 EAGLE Gerber RS-274X export*
G75*
%MOMM*%
%FSLAX34Y34*%
%LPD*%
%INBottom Copper*%
%IPPOS*%
%AMOC8*
5,1,8,0,0,1.08239X$1,22.5*%
G01*
%ADD10C,0.152400*%
%ADD11C,1.616000*%

G36*
X328133Y10767D02*
X328133Y10767D01*
X328169Y10764D01*
X328305Y10787D01*
X328441Y10803D01*
X328475Y10815D01*
X328510Y10820D01*
X328637Y10873D01*
X328767Y10920D01*
X328796Y10939D01*
X328829Y10953D01*
X328941Y11034D01*
X329056Y11109D01*
X329081Y11135D01*
X329109Y11155D01*
X329200Y11259D01*
X329295Y11359D01*
X329313Y11390D01*
X329336Y11416D01*
X329400Y11539D01*
X329470Y11657D01*
X329480Y11691D01*
X329497Y11723D01*
X329531Y11856D01*
X329572Y11988D01*
X329574Y12023D01*
X329583Y12057D01*
X329597Y12262D01*
X329597Y112198D01*
X329593Y112233D01*
X329596Y112269D01*
X329573Y112405D01*
X329557Y112541D01*
X329545Y112575D01*
X329540Y112610D01*
X329487Y112737D01*
X329440Y112867D01*
X329421Y112896D01*
X329407Y112929D01*
X329326Y113041D01*
X329251Y113156D01*
X329225Y113181D01*
X329205Y113209D01*
X329101Y113300D01*
X329001Y113395D01*
X328970Y113413D01*
X328944Y113436D01*
X328821Y113500D01*
X328703Y113570D01*
X328669Y113580D01*
X328637Y113597D01*
X328504Y113631D01*
X328372Y113672D01*
X328337Y113674D01*
X328303Y113683D01*
X328098Y113697D01*
X12262Y113697D01*
X12227Y113693D01*
X12191Y113696D01*
X12055Y113673D01*
X11919Y113657D01*
X11885Y113645D01*
X11850Y113640D01*
X11723Y113587D01*
X11593Y113540D01*
X11564Y113521D01*
X11531Y113507D01*
X11419Y113426D01*
X11304Y113351D01*
X11279Y113325D01*
X11251Y113305D01*
X11160Y113201D01*
X11065Y113101D01*
X11047Y113070D01*
X11024Y113044D01*
X10960Y112921D01*
X10890Y112803D01*
X10880Y112769D01*
X10863Y112737D01*
X10829Y112604D01*
X10788Y112472D01*
X10786Y112437D01*
X10777Y112403D01*
X10763Y112198D01*
X10763Y12262D01*
X10767Y12227D01*
X10764Y12191D01*
X10787Y12055D01*
X10803Y11919D01*
X10815Y11885D01*
X10820Y11850D01*
X10873Y11723D01*
X10920Y11593D01*
X10939Y11564D01*
X10953Y11531D01*
X11034Y11419D01*
X11109Y11304D01*
X11135Y11279D01*
X11155Y11251D01*
X11259Y11160D01*
X11359Y11065D01*
X11390Y11047D01*
X11416Y11024D01*
X11539Y10960D01*
X11657Y10890D01*
X11691Y10880D01*
X11723Y10863D01*
X11856Y10829D01*
X11988Y10788D01*
X12023Y10786D01*
X12057Y10777D01*
X12262Y10763D01*
X328098Y10763D01*
X328133Y10767D01*
G37*
%LPC*%
G36*
X73986Y38401D02*
X73986Y38401D01*
X69896Y40096D01*
X66766Y43226D01*
X65071Y47316D01*
X65071Y51744D01*
X66766Y55834D01*
X69896Y58964D01*
X73327Y60386D01*
X73469Y60465D01*
X73613Y60542D01*
X73621Y60549D01*
X73630Y60554D01*
X73751Y60665D01*
X73872Y60772D01*
X73877Y60780D01*
X73885Y60787D01*
X73977Y60921D01*
X74071Y61055D01*
X74075Y61064D01*
X74080Y61072D01*
X74139Y61224D01*
X74200Y61375D01*
X74201Y61385D01*
X74205Y61395D01*
X74228Y61557D01*
X74252Y61717D01*
X74251Y61727D01*
X74253Y61737D01*
X74237Y61899D01*
X74225Y62062D01*
X74221Y62071D01*
X74220Y62081D01*
X74169Y62236D01*
X74119Y62391D01*
X74114Y62400D01*
X74110Y62409D01*
X74025Y62548D01*
X73940Y62687D01*
X73933Y62694D01*
X73928Y62703D01*
X73813Y62818D01*
X73699Y62935D01*
X73690Y62940D01*
X73683Y62947D01*
X73544Y63033D01*
X73407Y63120D01*
X73395Y63125D01*
X73389Y63129D01*
X73369Y63135D01*
X73217Y63197D01*
X71563Y63734D01*
X69868Y64598D01*
X68330Y65715D01*
X66985Y67060D01*
X65868Y68598D01*
X65004Y70293D01*
X64467Y71947D01*
X64399Y72095D01*
X64333Y72244D01*
X64327Y72252D01*
X64323Y72261D01*
X64223Y72390D01*
X64125Y72520D01*
X64117Y72526D01*
X64111Y72534D01*
X63984Y72636D01*
X63858Y72740D01*
X63849Y72745D01*
X63841Y72751D01*
X63695Y72822D01*
X63549Y72894D01*
X63539Y72897D01*
X63530Y72901D01*
X63371Y72936D01*
X63212Y72973D01*
X63202Y72973D01*
X63192Y72975D01*
X63030Y72973D01*
X62866Y72973D01*
X62856Y72970D01*
X62846Y72970D01*
X62689Y72931D01*
X62530Y72893D01*
X62521Y72889D01*
X62511Y72886D01*
X62366Y72811D01*
X62221Y72739D01*
X62213Y72732D01*
X62204Y72728D01*
X62081Y72622D01*
X61955Y72517D01*
X61949Y72509D01*
X61941Y72503D01*
X61846Y72372D01*
X61747Y72241D01*
X61741Y72230D01*
X61737Y72224D01*
X61729Y72205D01*
X61656Y72057D01*
X60234Y68626D01*
X57104Y65496D01*
X53014Y63801D01*
X48586Y63801D01*
X44496Y65496D01*
X41366Y68626D01*
X39671Y72716D01*
X39671Y77144D01*
X41366Y81234D01*
X44496Y84364D01*
X48586Y86059D01*
X53014Y86059D01*
X57104Y84364D01*
X60234Y81234D01*
X61656Y77803D01*
X61735Y77661D01*
X61812Y77517D01*
X61819Y77509D01*
X61824Y77500D01*
X61935Y77379D01*
X62042Y77258D01*
X62050Y77253D01*
X62057Y77245D01*
X62191Y77153D01*
X62325Y77059D01*
X62334Y77055D01*
X62342Y77050D01*
X62494Y76991D01*
X62645Y76930D01*
X62655Y76929D01*
X62665Y76925D01*
X62827Y76902D01*
X62987Y76878D01*
X62997Y76879D01*
X63007Y76877D01*
X63169Y76893D01*
X63332Y76905D01*
X63341Y76909D01*
X63351Y76910D01*
X63506Y76961D01*
X63661Y77011D01*
X63670Y77016D01*
X63679Y77020D01*
X63818Y77105D01*
X63957Y77190D01*
X63964Y77197D01*
X63973Y77202D01*
X64088Y77317D01*
X64205Y77431D01*
X64210Y77440D01*
X64217Y77447D01*
X64303Y77586D01*
X64390Y77723D01*
X64395Y77735D01*
X64399Y77741D01*
X64405Y77761D01*
X64467Y77913D01*
X65004Y79567D01*
X65868Y81262D01*
X66985Y82800D01*
X68330Y84145D01*
X69868Y85262D01*
X71563Y86126D01*
X73371Y86713D01*
X73661Y86759D01*
X73661Y75970D01*
X73665Y75935D01*
X73662Y75900D01*
X73685Y75764D01*
X73701Y75627D01*
X73713Y75593D01*
X73718Y75558D01*
X73771Y75431D01*
X73818Y75302D01*
X73837Y75272D01*
X73851Y75239D01*
X73932Y75127D01*
X74007Y75012D01*
X74033Y74988D01*
X74053Y74959D01*
X74157Y74868D01*
X74257Y74773D01*
X74288Y74755D01*
X74314Y74732D01*
X74437Y74668D01*
X74555Y74598D01*
X74589Y74588D01*
X74620Y74571D01*
X74754Y74537D01*
X74886Y74496D01*
X74921Y74494D01*
X74955Y74485D01*
X75160Y74471D01*
X75741Y74471D01*
X75741Y73890D01*
X75745Y73855D01*
X75743Y73819D01*
X75765Y73683D01*
X75781Y73547D01*
X75793Y73513D01*
X75799Y73478D01*
X75851Y73351D01*
X75898Y73221D01*
X75918Y73192D01*
X75931Y73159D01*
X76012Y73047D01*
X76087Y72932D01*
X76113Y72907D01*
X76134Y72879D01*
X76238Y72788D01*
X76337Y72693D01*
X76368Y72675D01*
X76395Y72652D01*
X76517Y72588D01*
X76635Y72518D01*
X76669Y72508D01*
X76701Y72491D01*
X76834Y72457D01*
X76966Y72416D01*
X77001Y72414D01*
X77036Y72405D01*
X77240Y72391D01*
X88029Y72391D01*
X87983Y72101D01*
X87396Y70293D01*
X86532Y68598D01*
X85415Y67060D01*
X84070Y65715D01*
X82532Y64598D01*
X80837Y63734D01*
X79183Y63197D01*
X79035Y63129D01*
X78886Y63063D01*
X78878Y63057D01*
X78869Y63053D01*
X78740Y62953D01*
X78610Y62855D01*
X78604Y62847D01*
X78596Y62841D01*
X78493Y62714D01*
X78390Y62588D01*
X78385Y62579D01*
X78379Y62571D01*
X78308Y62425D01*
X78236Y62279D01*
X78233Y62269D01*
X78229Y62260D01*
X78194Y62101D01*
X78157Y61942D01*
X78157Y61932D01*
X78155Y61922D01*
X78157Y61760D01*
X78157Y61596D01*
X78160Y61586D01*
X78160Y61576D01*
X78199Y61419D01*
X78237Y61260D01*
X78241Y61251D01*
X78244Y61241D01*
X78319Y61096D01*
X78391Y60951D01*
X78398Y60943D01*
X78402Y60934D01*
X78508Y60811D01*
X78613Y60685D01*
X78621Y60679D01*
X78627Y60671D01*
X78758Y60576D01*
X78889Y60477D01*
X78900Y60471D01*
X78906Y60467D01*
X78925Y60459D01*
X79073Y60386D01*
X82504Y58964D01*
X85634Y55834D01*
X87329Y51744D01*
X87329Y47316D01*
X85634Y43226D01*
X82504Y40096D01*
X78414Y38401D01*
X73986Y38401D01*
G37*
%LPD*%
%LPC*%
G36*
X302371Y33781D02*
X302371Y33781D01*
X298507Y36012D01*
X298451Y36109D01*
X298403Y36175D01*
X298362Y36245D01*
X298300Y36313D01*
X298245Y36387D01*
X298183Y36439D01*
X298127Y36499D01*
X298051Y36550D01*
X297981Y36610D01*
X297908Y36646D01*
X297841Y36692D01*
X297754Y36724D01*
X297672Y36766D01*
X297593Y36785D01*
X297517Y36814D01*
X297426Y36826D01*
X297336Y36848D01*
X297255Y36848D01*
X297174Y36859D01*
X297083Y36849D01*
X296991Y36850D01*
X296911Y36832D01*
X296830Y36824D01*
X296743Y36794D01*
X296653Y36773D01*
X296580Y36737D01*
X296503Y36711D01*
X296426Y36662D01*
X296343Y36621D01*
X296280Y36570D01*
X296211Y36526D01*
X296147Y36461D01*
X296075Y36402D01*
X296026Y36338D01*
X295969Y36280D01*
X295878Y36145D01*
X295865Y36128D01*
X295862Y36121D01*
X295854Y36109D01*
X295798Y36012D01*
X291934Y33781D01*
X287472Y33781D01*
X283608Y36012D01*
X281722Y39278D01*
X281647Y39380D01*
X281577Y39487D01*
X281544Y39519D01*
X281516Y39556D01*
X281419Y39638D01*
X281327Y39725D01*
X281287Y39749D01*
X281252Y39778D01*
X281138Y39836D01*
X281029Y39900D01*
X280985Y39914D01*
X280944Y39935D01*
X280820Y39965D01*
X280698Y40002D01*
X280652Y40006D01*
X280608Y40016D01*
X280481Y40017D01*
X280354Y40026D01*
X280308Y40019D01*
X280262Y40019D01*
X280138Y39991D01*
X280012Y39970D01*
X279970Y39952D01*
X279925Y39942D01*
X279810Y39886D01*
X279693Y39837D01*
X279656Y39810D01*
X279614Y39790D01*
X279516Y39710D01*
X279413Y39635D01*
X279382Y39600D01*
X279347Y39571D01*
X279269Y39470D01*
X279186Y39374D01*
X279165Y39333D01*
X279137Y39297D01*
X279084Y39181D01*
X279025Y39068D01*
X279014Y39023D01*
X278995Y38981D01*
X278971Y38856D01*
X278939Y38733D01*
X278935Y38670D01*
X278929Y38642D01*
X278930Y38610D01*
X278925Y38528D01*
X278925Y36014D01*
X276693Y33781D01*
X273536Y33781D01*
X271303Y36014D01*
X271303Y48538D01*
X271299Y48573D01*
X271302Y48609D01*
X271279Y48745D01*
X271263Y48881D01*
X271251Y48915D01*
X271246Y48950D01*
X271193Y49077D01*
X271146Y49207D01*
X271127Y49236D01*
X271113Y49269D01*
X271032Y49381D01*
X270957Y49496D01*
X270932Y49521D01*
X270911Y49549D01*
X270807Y49640D01*
X270707Y49735D01*
X270676Y49753D01*
X270650Y49776D01*
X270527Y49840D01*
X270409Y49910D01*
X270375Y49920D01*
X270344Y49937D01*
X270210Y49971D01*
X270078Y50012D01*
X270043Y50014D01*
X270009Y50023D01*
X269804Y50037D01*
X269020Y50037D01*
X266788Y52270D01*
X266788Y55426D01*
X269020Y57659D01*
X281208Y57659D01*
X282687Y56179D01*
X282697Y56172D01*
X282705Y56162D01*
X282833Y56064D01*
X282958Y55965D01*
X282970Y55959D01*
X282980Y55952D01*
X283126Y55886D01*
X283271Y55818D01*
X283284Y55815D01*
X283295Y55810D01*
X283452Y55780D01*
X283610Y55747D01*
X283622Y55747D01*
X283634Y55745D01*
X283795Y55751D01*
X283955Y55755D01*
X283967Y55758D01*
X283980Y55758D01*
X284135Y55801D01*
X284290Y55842D01*
X284301Y55848D01*
X284313Y55851D01*
X284497Y55941D01*
X287472Y57659D01*
X291934Y57659D01*
X295798Y55428D01*
X296115Y54879D01*
X296164Y54814D01*
X296204Y54743D01*
X296267Y54676D01*
X296321Y54602D01*
X296384Y54549D01*
X296439Y54490D01*
X296515Y54438D01*
X296586Y54379D01*
X296658Y54342D01*
X296726Y54297D01*
X296812Y54264D01*
X296894Y54222D01*
X296973Y54203D01*
X297049Y54174D01*
X297141Y54163D01*
X297230Y54141D01*
X297311Y54140D01*
X297392Y54130D01*
X297484Y54139D01*
X297576Y54138D01*
X297655Y54156D01*
X297736Y54165D01*
X297823Y54195D01*
X297913Y54215D01*
X297986Y54251D01*
X298063Y54278D01*
X298141Y54327D01*
X298223Y54367D01*
X298286Y54419D01*
X298355Y54462D01*
X298420Y54528D01*
X298491Y54586D01*
X298540Y54651D01*
X298597Y54709D01*
X298688Y54844D01*
X298701Y54861D01*
X298704Y54868D01*
X298712Y54879D01*
X299168Y55670D01*
X302613Y57659D01*
X310696Y57659D01*
X312929Y55426D01*
X312929Y36014D01*
X310696Y33781D01*
X306802Y33781D01*
X302371Y33781D01*
G37*
%LPD*%
%LPC*%
G36*
X109546Y63801D02*
X109546Y63801D01*
X105456Y65496D01*
X102326Y68626D01*
X100631Y72716D01*
X100631Y77144D01*
X102326Y81234D01*
X105456Y84364D01*
X109546Y86059D01*
X113974Y86059D01*
X118064Y84364D01*
X121194Y81234D01*
X122889Y77144D01*
X122889Y72716D01*
X121194Y68626D01*
X118064Y65496D01*
X113974Y63801D01*
X109546Y63801D01*
G37*
%LPD*%
%LPC*%
G36*
X109546Y38401D02*
X109546Y38401D01*
X105456Y40096D01*
X102326Y43226D01*
X100631Y47316D01*
X100631Y51744D01*
X102326Y55834D01*
X105456Y58964D01*
X109546Y60659D01*
X113974Y60659D01*
X118064Y58964D01*
X121194Y55834D01*
X122889Y51744D01*
X122889Y47316D01*
X121194Y43226D01*
X118064Y40096D01*
X113974Y38401D01*
X109546Y38401D01*
G37*
%LPD*%
%LPC*%
G36*
X48586Y38401D02*
X48586Y38401D01*
X44496Y40096D01*
X41366Y43226D01*
X39671Y47316D01*
X39671Y51744D01*
X41366Y55834D01*
X44496Y58964D01*
X48586Y60659D01*
X53014Y60659D01*
X57104Y58964D01*
X60234Y55834D01*
X61929Y51744D01*
X61929Y47316D01*
X60234Y43226D01*
X57104Y40096D01*
X53014Y38401D01*
X48586Y38401D01*
G37*
%LPD*%
%LPC*%
G36*
X23186Y38401D02*
X23186Y38401D01*
X19096Y40096D01*
X15966Y43226D01*
X14271Y47316D01*
X14271Y51744D01*
X15966Y55834D01*
X19096Y58964D01*
X23186Y60659D01*
X27614Y60659D01*
X31704Y58964D01*
X34834Y55834D01*
X36529Y51744D01*
X36529Y47316D01*
X34834Y43226D01*
X31704Y40096D01*
X27614Y38401D01*
X23186Y38401D01*
G37*
%LPD*%
%LPC*%
G36*
X23186Y63801D02*
X23186Y63801D01*
X19096Y65496D01*
X15966Y68626D01*
X14271Y72716D01*
X14271Y77144D01*
X15966Y81234D01*
X19096Y84364D01*
X23186Y86059D01*
X27614Y86059D01*
X31704Y84364D01*
X34834Y81234D01*
X36529Y77144D01*
X36529Y72716D01*
X34834Y68626D01*
X31704Y65496D01*
X27614Y63801D01*
X23186Y63801D01*
G37*
%LPD*%
%LPC*%
G36*
X78739Y77469D02*
X78739Y77469D01*
X78739Y86759D01*
X79029Y86713D01*
X80837Y86126D01*
X82532Y85262D01*
X84070Y84145D01*
X85415Y82800D01*
X86532Y81262D01*
X87396Y79567D01*
X87983Y77759D01*
X88029Y77469D01*
X78739Y77469D01*
G37*
%LPD*%
D10*
X309118Y46623D02*
X304602Y46623D01*
X304602Y46624D02*
X304469Y46622D01*
X304337Y46616D01*
X304205Y46606D01*
X304073Y46593D01*
X303941Y46575D01*
X303811Y46554D01*
X303680Y46529D01*
X303551Y46500D01*
X303423Y46467D01*
X303295Y46431D01*
X303169Y46391D01*
X303044Y46347D01*
X302920Y46299D01*
X302798Y46248D01*
X302677Y46193D01*
X302558Y46135D01*
X302440Y46073D01*
X302325Y46008D01*
X302211Y45939D01*
X302100Y45868D01*
X301991Y45792D01*
X301884Y45714D01*
X301779Y45633D01*
X301677Y45548D01*
X301577Y45461D01*
X301480Y45371D01*
X301385Y45278D01*
X301294Y45182D01*
X301205Y45084D01*
X301119Y44983D01*
X301036Y44879D01*
X300956Y44773D01*
X300880Y44665D01*
X300806Y44555D01*
X300736Y44442D01*
X300669Y44328D01*
X300606Y44211D01*
X300546Y44093D01*
X300489Y43973D01*
X300436Y43851D01*
X300387Y43728D01*
X300341Y43604D01*
X300299Y43478D01*
X300261Y43351D01*
X300226Y43223D01*
X300195Y43094D01*
X300168Y42965D01*
X300145Y42834D01*
X300125Y42703D01*
X300110Y42571D01*
X300098Y42439D01*
X300090Y42307D01*
X300086Y42174D01*
X300086Y42042D01*
X300090Y41909D01*
X300098Y41777D01*
X300110Y41645D01*
X300125Y41513D01*
X300145Y41382D01*
X300168Y41251D01*
X300195Y41122D01*
X300226Y40993D01*
X300261Y40865D01*
X300299Y40738D01*
X300341Y40612D01*
X300387Y40488D01*
X300436Y40365D01*
X300489Y40243D01*
X300546Y40123D01*
X300606Y40005D01*
X300669Y39888D01*
X300736Y39774D01*
X300806Y39661D01*
X300880Y39551D01*
X300956Y39443D01*
X301036Y39337D01*
X301119Y39233D01*
X301205Y39132D01*
X301294Y39034D01*
X301385Y38938D01*
X301480Y38845D01*
X301577Y38755D01*
X301677Y38668D01*
X301779Y38583D01*
X301884Y38502D01*
X301991Y38424D01*
X302100Y38348D01*
X302211Y38277D01*
X302325Y38208D01*
X302440Y38143D01*
X302558Y38081D01*
X302677Y38023D01*
X302798Y37968D01*
X302920Y37917D01*
X303044Y37869D01*
X303169Y37825D01*
X303295Y37785D01*
X303423Y37749D01*
X303551Y37716D01*
X303680Y37687D01*
X303811Y37662D01*
X303941Y37641D01*
X304073Y37623D01*
X304205Y37610D01*
X304337Y37600D01*
X304469Y37594D01*
X304602Y37592D01*
X309118Y37592D01*
X309118Y53848D01*
X304602Y53848D01*
X304483Y53846D01*
X304363Y53840D01*
X304244Y53830D01*
X304126Y53816D01*
X304007Y53799D01*
X303890Y53777D01*
X303773Y53752D01*
X303658Y53722D01*
X303543Y53689D01*
X303429Y53652D01*
X303317Y53612D01*
X303206Y53567D01*
X303097Y53519D01*
X302989Y53468D01*
X302883Y53413D01*
X302779Y53354D01*
X302677Y53292D01*
X302577Y53227D01*
X302479Y53158D01*
X302383Y53086D01*
X302290Y53011D01*
X302200Y52934D01*
X302112Y52853D01*
X302027Y52769D01*
X301945Y52682D01*
X301865Y52593D01*
X301789Y52501D01*
X301715Y52407D01*
X301645Y52310D01*
X301578Y52212D01*
X301514Y52111D01*
X301454Y52007D01*
X301397Y51902D01*
X301344Y51795D01*
X301294Y51687D01*
X301248Y51577D01*
X301206Y51465D01*
X301167Y51352D01*
X301132Y51238D01*
X301101Y51123D01*
X301073Y51006D01*
X301050Y50889D01*
X301030Y50772D01*
X301014Y50653D01*
X301002Y50534D01*
X300994Y50415D01*
X300990Y50296D01*
X300990Y50176D01*
X300994Y50057D01*
X301002Y49938D01*
X301014Y49819D01*
X301030Y49700D01*
X301050Y49583D01*
X301073Y49466D01*
X301101Y49349D01*
X301132Y49234D01*
X301167Y49120D01*
X301206Y49007D01*
X301248Y48895D01*
X301294Y48785D01*
X301344Y48677D01*
X301397Y48570D01*
X301454Y48465D01*
X301514Y48361D01*
X301578Y48260D01*
X301645Y48162D01*
X301715Y48065D01*
X301789Y47971D01*
X301865Y47879D01*
X301945Y47790D01*
X302027Y47703D01*
X302112Y47619D01*
X302200Y47538D01*
X302290Y47461D01*
X302383Y47386D01*
X302479Y47314D01*
X302577Y47245D01*
X302677Y47180D01*
X302779Y47118D01*
X302883Y47059D01*
X302989Y47004D01*
X303097Y46953D01*
X303206Y46905D01*
X303317Y46860D01*
X303429Y46820D01*
X303543Y46783D01*
X303658Y46750D01*
X303773Y46720D01*
X303890Y46695D01*
X304007Y46673D01*
X304126Y46656D01*
X304244Y46642D01*
X304363Y46632D01*
X304483Y46626D01*
X304602Y46624D01*
X294219Y49332D02*
X294219Y42108D01*
X294219Y49332D02*
X294217Y49465D01*
X294211Y49597D01*
X294201Y49729D01*
X294188Y49861D01*
X294170Y49993D01*
X294149Y50123D01*
X294124Y50254D01*
X294095Y50383D01*
X294062Y50511D01*
X294026Y50639D01*
X293986Y50765D01*
X293942Y50890D01*
X293894Y51014D01*
X293843Y51136D01*
X293788Y51257D01*
X293730Y51376D01*
X293668Y51494D01*
X293603Y51609D01*
X293534Y51723D01*
X293463Y51834D01*
X293387Y51943D01*
X293309Y52050D01*
X293228Y52155D01*
X293143Y52257D01*
X293056Y52357D01*
X292966Y52454D01*
X292873Y52549D01*
X292777Y52640D01*
X292679Y52729D01*
X292578Y52815D01*
X292474Y52898D01*
X292368Y52978D01*
X292260Y53054D01*
X292150Y53128D01*
X292037Y53198D01*
X291923Y53265D01*
X291806Y53328D01*
X291688Y53388D01*
X291568Y53445D01*
X291446Y53498D01*
X291323Y53547D01*
X291199Y53593D01*
X291073Y53635D01*
X290946Y53673D01*
X290818Y53708D01*
X290689Y53739D01*
X290560Y53766D01*
X290429Y53789D01*
X290298Y53809D01*
X290166Y53824D01*
X290034Y53836D01*
X289902Y53844D01*
X289769Y53848D01*
X289637Y53848D01*
X289504Y53844D01*
X289372Y53836D01*
X289240Y53824D01*
X289108Y53809D01*
X288977Y53789D01*
X288846Y53766D01*
X288717Y53739D01*
X288588Y53708D01*
X288460Y53673D01*
X288333Y53635D01*
X288207Y53593D01*
X288083Y53547D01*
X287960Y53498D01*
X287838Y53445D01*
X287718Y53388D01*
X287600Y53328D01*
X287483Y53265D01*
X287369Y53198D01*
X287256Y53128D01*
X287146Y53054D01*
X287038Y52978D01*
X286932Y52898D01*
X286828Y52815D01*
X286727Y52729D01*
X286629Y52640D01*
X286533Y52549D01*
X286440Y52454D01*
X286350Y52357D01*
X286263Y52257D01*
X286178Y52155D01*
X286097Y52050D01*
X286019Y51943D01*
X285943Y51834D01*
X285872Y51723D01*
X285803Y51609D01*
X285738Y51494D01*
X285676Y51376D01*
X285618Y51257D01*
X285563Y51136D01*
X285512Y51014D01*
X285464Y50890D01*
X285420Y50765D01*
X285380Y50639D01*
X285344Y50511D01*
X285311Y50383D01*
X285282Y50254D01*
X285257Y50123D01*
X285236Y49993D01*
X285218Y49861D01*
X285205Y49729D01*
X285195Y49597D01*
X285189Y49465D01*
X285187Y49332D01*
X285188Y49332D02*
X285188Y42108D01*
X285187Y42108D02*
X285189Y41975D01*
X285195Y41843D01*
X285205Y41711D01*
X285218Y41579D01*
X285236Y41447D01*
X285257Y41317D01*
X285282Y41186D01*
X285311Y41057D01*
X285344Y40929D01*
X285380Y40801D01*
X285420Y40675D01*
X285464Y40550D01*
X285512Y40426D01*
X285563Y40304D01*
X285618Y40183D01*
X285676Y40064D01*
X285738Y39946D01*
X285803Y39831D01*
X285872Y39717D01*
X285943Y39606D01*
X286019Y39497D01*
X286097Y39390D01*
X286178Y39285D01*
X286263Y39183D01*
X286350Y39083D01*
X286440Y38986D01*
X286533Y38891D01*
X286629Y38800D01*
X286727Y38711D01*
X286828Y38625D01*
X286932Y38542D01*
X287038Y38462D01*
X287146Y38386D01*
X287256Y38312D01*
X287369Y38242D01*
X287483Y38175D01*
X287600Y38112D01*
X287718Y38052D01*
X287838Y37995D01*
X287960Y37942D01*
X288083Y37893D01*
X288207Y37847D01*
X288333Y37805D01*
X288460Y37767D01*
X288588Y37732D01*
X288717Y37701D01*
X288846Y37674D01*
X288977Y37651D01*
X289108Y37631D01*
X289240Y37616D01*
X289372Y37604D01*
X289504Y37596D01*
X289637Y37592D01*
X289769Y37592D01*
X289902Y37596D01*
X290034Y37604D01*
X290166Y37616D01*
X290298Y37631D01*
X290429Y37651D01*
X290560Y37674D01*
X290689Y37701D01*
X290818Y37732D01*
X290946Y37767D01*
X291073Y37805D01*
X291199Y37847D01*
X291323Y37893D01*
X291446Y37942D01*
X291568Y37995D01*
X291688Y38052D01*
X291806Y38112D01*
X291923Y38175D01*
X292037Y38242D01*
X292150Y38312D01*
X292260Y38386D01*
X292368Y38462D01*
X292474Y38542D01*
X292578Y38625D01*
X292679Y38711D01*
X292777Y38800D01*
X292873Y38891D01*
X292966Y38986D01*
X293056Y39083D01*
X293143Y39183D01*
X293228Y39285D01*
X293309Y39390D01*
X293387Y39497D01*
X293463Y39606D01*
X293534Y39717D01*
X293603Y39831D01*
X293668Y39946D01*
X293730Y40064D01*
X293788Y40183D01*
X293843Y40304D01*
X293894Y40426D01*
X293942Y40550D01*
X293986Y40675D01*
X294026Y40801D01*
X294062Y40929D01*
X294095Y41057D01*
X294124Y41186D01*
X294149Y41317D01*
X294170Y41447D01*
X294188Y41579D01*
X294201Y41711D01*
X294211Y41843D01*
X294217Y41975D01*
X294219Y42108D01*
X275114Y37592D02*
X275114Y53848D01*
X270599Y53848D02*
X279630Y53848D01*
D11*
X25400Y74930D03*
X50800Y74930D03*
X76200Y74930D03*
X25400Y49530D03*
X50800Y49530D03*
X76200Y49530D03*
X111760Y74930D03*
X111760Y49530D03*
M02*
