G04 EAGLE Gerber RS-274X export*
G75*
%MOMM*%
%FSLAX34Y34*%
%LPD*%
%INSilkscreen Top*%
%IPPOS*%
%AMOC8*
5,1,8,0,0,1.08239X$1,22.5*%
G01*
%ADD10C,0.100000*%
%ADD11C,0.101600*%
%ADD12C,0.152400*%
%ADD13C,0.127000*%


D10*
X146050Y45230D02*
X146050Y79230D01*
X234950Y79230D02*
X234950Y45230D01*
D11*
X141294Y58984D02*
X141292Y58885D01*
X141286Y58785D01*
X141277Y58686D01*
X141264Y58588D01*
X141247Y58490D01*
X141226Y58392D01*
X141201Y58296D01*
X141173Y58201D01*
X141141Y58107D01*
X141106Y58014D01*
X141067Y57922D01*
X141024Y57832D01*
X140979Y57744D01*
X140929Y57657D01*
X140877Y57573D01*
X140821Y57490D01*
X140763Y57410D01*
X140701Y57332D01*
X140636Y57257D01*
X140568Y57184D01*
X140498Y57114D01*
X140425Y57046D01*
X140350Y56981D01*
X140272Y56919D01*
X140192Y56861D01*
X140109Y56805D01*
X140025Y56753D01*
X139938Y56703D01*
X139850Y56658D01*
X139760Y56615D01*
X139668Y56576D01*
X139575Y56541D01*
X139481Y56509D01*
X139386Y56481D01*
X139290Y56456D01*
X139192Y56435D01*
X139094Y56418D01*
X138996Y56405D01*
X138897Y56396D01*
X138797Y56390D01*
X138698Y56388D01*
X138554Y56390D01*
X138409Y56396D01*
X138265Y56405D01*
X138122Y56418D01*
X137978Y56435D01*
X137835Y56456D01*
X137693Y56481D01*
X137552Y56509D01*
X137411Y56541D01*
X137271Y56577D01*
X137132Y56616D01*
X136994Y56659D01*
X136858Y56706D01*
X136722Y56756D01*
X136588Y56810D01*
X136456Y56867D01*
X136325Y56928D01*
X136196Y56992D01*
X136068Y57060D01*
X135942Y57130D01*
X135818Y57205D01*
X135697Y57282D01*
X135577Y57363D01*
X135459Y57446D01*
X135344Y57533D01*
X135231Y57623D01*
X135120Y57716D01*
X135012Y57811D01*
X134906Y57910D01*
X134803Y58011D01*
X135128Y65476D02*
X135130Y65575D01*
X135136Y65675D01*
X135145Y65774D01*
X135158Y65872D01*
X135175Y65970D01*
X135196Y66068D01*
X135221Y66164D01*
X135249Y66259D01*
X135281Y66353D01*
X135316Y66446D01*
X135355Y66538D01*
X135398Y66628D01*
X135443Y66716D01*
X135493Y66803D01*
X135545Y66887D01*
X135601Y66970D01*
X135659Y67050D01*
X135721Y67128D01*
X135786Y67203D01*
X135854Y67276D01*
X135924Y67346D01*
X135997Y67414D01*
X136072Y67479D01*
X136150Y67541D01*
X136230Y67599D01*
X136313Y67655D01*
X136397Y67707D01*
X136484Y67757D01*
X136572Y67802D01*
X136662Y67845D01*
X136754Y67884D01*
X136847Y67919D01*
X136941Y67951D01*
X137036Y67979D01*
X137133Y68004D01*
X137230Y68025D01*
X137328Y68042D01*
X137426Y68055D01*
X137525Y68064D01*
X137625Y68070D01*
X137724Y68072D01*
X137860Y68070D01*
X137996Y68064D01*
X138132Y68055D01*
X138268Y68042D01*
X138403Y68024D01*
X138537Y68004D01*
X138671Y67979D01*
X138805Y67951D01*
X138937Y67918D01*
X139068Y67883D01*
X139199Y67843D01*
X139328Y67800D01*
X139456Y67754D01*
X139582Y67703D01*
X139708Y67650D01*
X139831Y67592D01*
X139953Y67532D01*
X140073Y67468D01*
X140192Y67400D01*
X140308Y67330D01*
X140422Y67256D01*
X140535Y67179D01*
X140645Y67098D01*
X136426Y63204D02*
X136340Y63257D01*
X136256Y63314D01*
X136174Y63373D01*
X136094Y63436D01*
X136017Y63502D01*
X135942Y63570D01*
X135870Y63642D01*
X135801Y63716D01*
X135735Y63793D01*
X135672Y63872D01*
X135612Y63954D01*
X135555Y64038D01*
X135501Y64124D01*
X135451Y64212D01*
X135404Y64302D01*
X135360Y64393D01*
X135321Y64487D01*
X135284Y64581D01*
X135252Y64677D01*
X135223Y64775D01*
X135198Y64873D01*
X135177Y64972D01*
X135159Y65072D01*
X135146Y65172D01*
X135136Y65273D01*
X135130Y65375D01*
X135128Y65476D01*
X139997Y61256D02*
X140083Y61203D01*
X140167Y61146D01*
X140249Y61087D01*
X140329Y61024D01*
X140406Y60958D01*
X140481Y60890D01*
X140553Y60818D01*
X140622Y60744D01*
X140688Y60667D01*
X140751Y60588D01*
X140811Y60506D01*
X140868Y60422D01*
X140922Y60336D01*
X140972Y60248D01*
X141019Y60158D01*
X141063Y60067D01*
X141102Y59973D01*
X141139Y59879D01*
X141171Y59783D01*
X141200Y59685D01*
X141225Y59587D01*
X141246Y59488D01*
X141264Y59388D01*
X141277Y59288D01*
X141287Y59187D01*
X141293Y59085D01*
X141295Y58984D01*
X139996Y61256D02*
X136426Y63204D01*
X148336Y68072D02*
X148336Y56388D01*
X145090Y68072D02*
X151582Y68072D01*
X156139Y68072D02*
X156139Y56388D01*
X156139Y68072D02*
X159385Y68072D01*
X159498Y68070D01*
X159611Y68064D01*
X159724Y68054D01*
X159837Y68040D01*
X159949Y68023D01*
X160060Y68001D01*
X160170Y67976D01*
X160280Y67946D01*
X160388Y67913D01*
X160495Y67876D01*
X160601Y67836D01*
X160705Y67791D01*
X160808Y67743D01*
X160909Y67692D01*
X161008Y67637D01*
X161105Y67579D01*
X161200Y67517D01*
X161293Y67452D01*
X161383Y67384D01*
X161471Y67313D01*
X161557Y67238D01*
X161640Y67161D01*
X161720Y67081D01*
X161797Y66998D01*
X161872Y66912D01*
X161943Y66824D01*
X162011Y66734D01*
X162076Y66641D01*
X162138Y66546D01*
X162196Y66449D01*
X162251Y66350D01*
X162302Y66249D01*
X162350Y66146D01*
X162395Y66042D01*
X162435Y65936D01*
X162472Y65829D01*
X162505Y65721D01*
X162535Y65611D01*
X162560Y65501D01*
X162582Y65390D01*
X162599Y65278D01*
X162613Y65165D01*
X162623Y65052D01*
X162629Y64939D01*
X162631Y64826D01*
X162631Y59634D01*
X162629Y59521D01*
X162623Y59408D01*
X162613Y59295D01*
X162599Y59182D01*
X162582Y59070D01*
X162560Y58959D01*
X162535Y58849D01*
X162505Y58739D01*
X162472Y58631D01*
X162435Y58524D01*
X162395Y58418D01*
X162350Y58314D01*
X162302Y58211D01*
X162251Y58110D01*
X162196Y58011D01*
X162138Y57914D01*
X162076Y57819D01*
X162011Y57726D01*
X161943Y57636D01*
X161872Y57548D01*
X161797Y57462D01*
X161720Y57379D01*
X161640Y57299D01*
X161557Y57222D01*
X161471Y57147D01*
X161383Y57076D01*
X161293Y57008D01*
X161200Y56943D01*
X161105Y56881D01*
X161008Y56823D01*
X160909Y56768D01*
X160808Y56717D01*
X160705Y56669D01*
X160601Y56624D01*
X160495Y56584D01*
X160388Y56547D01*
X160280Y56514D01*
X160170Y56484D01*
X160060Y56459D01*
X159949Y56437D01*
X159837Y56420D01*
X159724Y56406D01*
X159611Y56396D01*
X159498Y56390D01*
X159385Y56388D01*
X156139Y56388D01*
X170514Y56388D02*
X173110Y56388D01*
X170514Y56388D02*
X170415Y56390D01*
X170315Y56396D01*
X170216Y56405D01*
X170118Y56418D01*
X170020Y56435D01*
X169922Y56456D01*
X169826Y56481D01*
X169731Y56509D01*
X169637Y56541D01*
X169544Y56576D01*
X169452Y56615D01*
X169362Y56658D01*
X169274Y56703D01*
X169187Y56753D01*
X169103Y56805D01*
X169020Y56861D01*
X168940Y56919D01*
X168862Y56981D01*
X168787Y57046D01*
X168714Y57114D01*
X168644Y57184D01*
X168576Y57257D01*
X168511Y57332D01*
X168449Y57410D01*
X168391Y57490D01*
X168335Y57573D01*
X168283Y57657D01*
X168233Y57744D01*
X168188Y57832D01*
X168145Y57922D01*
X168106Y58014D01*
X168071Y58107D01*
X168039Y58201D01*
X168011Y58296D01*
X167986Y58392D01*
X167965Y58490D01*
X167948Y58588D01*
X167935Y58686D01*
X167926Y58785D01*
X167920Y58885D01*
X167918Y58984D01*
X167917Y58984D02*
X167917Y65476D01*
X167918Y65476D02*
X167920Y65575D01*
X167926Y65675D01*
X167935Y65774D01*
X167948Y65872D01*
X167965Y65970D01*
X167986Y66068D01*
X168011Y66164D01*
X168039Y66259D01*
X168071Y66353D01*
X168106Y66446D01*
X168145Y66538D01*
X168188Y66628D01*
X168233Y66716D01*
X168283Y66803D01*
X168335Y66887D01*
X168391Y66970D01*
X168449Y67050D01*
X168511Y67128D01*
X168576Y67203D01*
X168644Y67276D01*
X168714Y67346D01*
X168787Y67414D01*
X168862Y67479D01*
X168940Y67541D01*
X169020Y67599D01*
X169103Y67655D01*
X169187Y67707D01*
X169274Y67757D01*
X169362Y67802D01*
X169452Y67845D01*
X169544Y67884D01*
X169636Y67919D01*
X169731Y67951D01*
X169826Y67979D01*
X169922Y68004D01*
X170020Y68025D01*
X170118Y68042D01*
X170216Y68055D01*
X170315Y68064D01*
X170415Y68070D01*
X170514Y68072D01*
X173110Y68072D01*
X177475Y65476D02*
X180721Y68072D01*
X180721Y56388D01*
X177475Y56388D02*
X183967Y56388D01*
X188905Y58984D02*
X191502Y68072D01*
X188905Y58984D02*
X195396Y58984D01*
X193449Y61581D02*
X193449Y56388D01*
D12*
X124460Y68580D02*
X124460Y81280D01*
X124460Y68580D02*
X118110Y62230D01*
X105410Y62230D02*
X99060Y68580D01*
X118110Y62230D02*
X124460Y55880D01*
X124460Y43180D01*
X118110Y36830D01*
X105410Y36830D02*
X99060Y43180D01*
X99060Y55880D01*
X105410Y62230D01*
X105410Y87630D02*
X118110Y87630D01*
X124460Y81280D01*
X105410Y87630D02*
X99060Y81280D01*
X99060Y68580D01*
X105410Y36830D02*
X118110Y36830D01*
D13*
X121920Y87630D02*
X121922Y87730D01*
X121928Y87831D01*
X121938Y87930D01*
X121952Y88030D01*
X121969Y88129D01*
X121991Y88227D01*
X122017Y88324D01*
X122046Y88420D01*
X122079Y88514D01*
X122116Y88608D01*
X122156Y88700D01*
X122200Y88790D01*
X122248Y88878D01*
X122299Y88965D01*
X122353Y89049D01*
X122411Y89131D01*
X122472Y89211D01*
X122536Y89288D01*
X122603Y89363D01*
X122673Y89435D01*
X122746Y89504D01*
X122821Y89570D01*
X122899Y89634D01*
X122979Y89694D01*
X123062Y89751D01*
X123147Y89804D01*
X123234Y89854D01*
X123323Y89901D01*
X123413Y89944D01*
X123505Y89984D01*
X123599Y90020D01*
X123694Y90052D01*
X123790Y90080D01*
X123888Y90105D01*
X123986Y90125D01*
X124085Y90142D01*
X124185Y90155D01*
X124284Y90164D01*
X124385Y90169D01*
X124485Y90170D01*
X124585Y90167D01*
X124686Y90160D01*
X124785Y90149D01*
X124885Y90134D01*
X124983Y90116D01*
X125081Y90093D01*
X125178Y90066D01*
X125273Y90036D01*
X125368Y90002D01*
X125461Y89964D01*
X125552Y89923D01*
X125642Y89878D01*
X125730Y89830D01*
X125816Y89778D01*
X125900Y89723D01*
X125981Y89664D01*
X126060Y89602D01*
X126137Y89538D01*
X126211Y89470D01*
X126282Y89399D01*
X126351Y89326D01*
X126416Y89250D01*
X126479Y89171D01*
X126538Y89090D01*
X126594Y89007D01*
X126647Y88922D01*
X126696Y88834D01*
X126742Y88745D01*
X126784Y88654D01*
X126823Y88561D01*
X126858Y88467D01*
X126889Y88372D01*
X126917Y88275D01*
X126940Y88178D01*
X126960Y88079D01*
X126976Y87980D01*
X126988Y87881D01*
X126996Y87780D01*
X127000Y87680D01*
X127000Y87580D01*
X126996Y87480D01*
X126988Y87379D01*
X126976Y87280D01*
X126960Y87181D01*
X126940Y87082D01*
X126917Y86985D01*
X126889Y86888D01*
X126858Y86793D01*
X126823Y86699D01*
X126784Y86606D01*
X126742Y86515D01*
X126696Y86426D01*
X126647Y86338D01*
X126594Y86253D01*
X126538Y86170D01*
X126479Y86089D01*
X126416Y86010D01*
X126351Y85934D01*
X126282Y85861D01*
X126211Y85790D01*
X126137Y85722D01*
X126060Y85658D01*
X125981Y85596D01*
X125900Y85537D01*
X125816Y85482D01*
X125730Y85430D01*
X125642Y85382D01*
X125552Y85337D01*
X125461Y85296D01*
X125368Y85258D01*
X125273Y85224D01*
X125178Y85194D01*
X125081Y85167D01*
X124983Y85144D01*
X124885Y85126D01*
X124785Y85111D01*
X124686Y85100D01*
X124585Y85093D01*
X124485Y85090D01*
X124385Y85091D01*
X124284Y85096D01*
X124185Y85105D01*
X124085Y85118D01*
X123986Y85135D01*
X123888Y85155D01*
X123790Y85180D01*
X123694Y85208D01*
X123599Y85240D01*
X123505Y85276D01*
X123413Y85316D01*
X123323Y85359D01*
X123234Y85406D01*
X123147Y85456D01*
X123062Y85509D01*
X122979Y85566D01*
X122899Y85626D01*
X122821Y85690D01*
X122746Y85756D01*
X122673Y85825D01*
X122603Y85897D01*
X122536Y85972D01*
X122472Y86049D01*
X122411Y86129D01*
X122353Y86211D01*
X122299Y86295D01*
X122248Y86382D01*
X122200Y86470D01*
X122156Y86560D01*
X122116Y86652D01*
X122079Y86746D01*
X122046Y86840D01*
X122017Y86936D01*
X121991Y87033D01*
X121969Y87131D01*
X121952Y87230D01*
X121938Y87330D01*
X121928Y87429D01*
X121922Y87530D01*
X121920Y87630D01*
X97504Y29845D02*
X101314Y18415D01*
X105124Y29845D01*
X112072Y18415D02*
X114612Y18415D01*
X112072Y18415D02*
X111972Y18417D01*
X111873Y18423D01*
X111773Y18433D01*
X111675Y18446D01*
X111576Y18464D01*
X111479Y18485D01*
X111383Y18510D01*
X111287Y18539D01*
X111193Y18572D01*
X111100Y18608D01*
X111009Y18648D01*
X110919Y18692D01*
X110831Y18739D01*
X110745Y18789D01*
X110661Y18843D01*
X110579Y18900D01*
X110500Y18960D01*
X110422Y19024D01*
X110348Y19090D01*
X110276Y19159D01*
X110207Y19231D01*
X110141Y19305D01*
X110077Y19383D01*
X110017Y19462D01*
X109960Y19544D01*
X109906Y19628D01*
X109856Y19714D01*
X109809Y19802D01*
X109765Y19892D01*
X109725Y19983D01*
X109689Y20076D01*
X109656Y20170D01*
X109627Y20266D01*
X109602Y20362D01*
X109581Y20459D01*
X109563Y20558D01*
X109550Y20656D01*
X109540Y20756D01*
X109534Y20855D01*
X109532Y20955D01*
X109532Y27305D01*
X109534Y27405D01*
X109540Y27504D01*
X109550Y27604D01*
X109563Y27702D01*
X109581Y27801D01*
X109602Y27898D01*
X109627Y27994D01*
X109656Y28090D01*
X109689Y28184D01*
X109725Y28277D01*
X109765Y28368D01*
X109809Y28458D01*
X109856Y28546D01*
X109906Y28632D01*
X109960Y28716D01*
X110017Y28798D01*
X110077Y28877D01*
X110141Y28955D01*
X110207Y29029D01*
X110276Y29101D01*
X110348Y29170D01*
X110422Y29236D01*
X110500Y29300D01*
X110579Y29360D01*
X110661Y29417D01*
X110745Y29471D01*
X110831Y29521D01*
X110919Y29568D01*
X111009Y29612D01*
X111100Y29652D01*
X111193Y29688D01*
X111287Y29721D01*
X111383Y29750D01*
X111479Y29775D01*
X111576Y29796D01*
X111675Y29814D01*
X111773Y29827D01*
X111873Y29837D01*
X111972Y29843D01*
X112072Y29845D01*
X114612Y29845D01*
X119666Y29845D02*
X119666Y18415D01*
X119666Y29845D02*
X122841Y29845D01*
X122952Y29843D01*
X123062Y29837D01*
X123173Y29828D01*
X123283Y29814D01*
X123392Y29797D01*
X123501Y29776D01*
X123609Y29751D01*
X123716Y29722D01*
X123822Y29690D01*
X123927Y29654D01*
X124030Y29614D01*
X124132Y29571D01*
X124233Y29524D01*
X124332Y29473D01*
X124429Y29420D01*
X124523Y29363D01*
X124616Y29302D01*
X124707Y29239D01*
X124796Y29172D01*
X124882Y29102D01*
X124965Y29029D01*
X125047Y28954D01*
X125125Y28876D01*
X125200Y28794D01*
X125273Y28711D01*
X125343Y28625D01*
X125410Y28536D01*
X125473Y28445D01*
X125534Y28352D01*
X125591Y28257D01*
X125644Y28161D01*
X125695Y28062D01*
X125742Y27961D01*
X125785Y27859D01*
X125825Y27756D01*
X125861Y27651D01*
X125893Y27545D01*
X125922Y27438D01*
X125947Y27330D01*
X125968Y27221D01*
X125985Y27112D01*
X125999Y27002D01*
X126008Y26891D01*
X126014Y26781D01*
X126016Y26670D01*
X126014Y26559D01*
X126008Y26449D01*
X125999Y26338D01*
X125985Y26228D01*
X125968Y26119D01*
X125947Y26010D01*
X125922Y25902D01*
X125893Y25795D01*
X125861Y25689D01*
X125825Y25584D01*
X125785Y25481D01*
X125742Y25379D01*
X125695Y25278D01*
X125644Y25179D01*
X125591Y25082D01*
X125534Y24988D01*
X125473Y24895D01*
X125410Y24804D01*
X125343Y24715D01*
X125273Y24629D01*
X125200Y24546D01*
X125125Y24464D01*
X125047Y24386D01*
X124965Y24311D01*
X124882Y24238D01*
X124796Y24168D01*
X124707Y24101D01*
X124616Y24038D01*
X124523Y23977D01*
X124428Y23920D01*
X124332Y23867D01*
X124233Y23816D01*
X124132Y23769D01*
X124030Y23726D01*
X123927Y23686D01*
X123822Y23650D01*
X123716Y23618D01*
X123609Y23589D01*
X123501Y23564D01*
X123392Y23543D01*
X123283Y23526D01*
X123173Y23512D01*
X123062Y23503D01*
X122952Y23497D01*
X122841Y23495D01*
X119666Y23495D01*
M02*
