<?xml version="1.0" encoding="UTF-8" standalone="no"?>
<!-- Created with Inkscape (http://www.inkscape.org/) -->

<svg
   width="594mm"
   height="420mm"
   viewBox="0 0 594 420"
   version="1.1"
   id="svg5"
   inkscape:version="1.1.2 (b8e25be8, 2022-02-05)"
   sodipodi:docname="face-avant-decoupe-inkscape.svg"
   inkscape:export-filename="/Volumes/Samsung_T5/Users/sydreynal/Dropbox/dev/Projets/themis/GitHub repository/themis/front-pane/eagle-schematics/v3/panneau avant/face-avant-decoupe-inkscape.png"
   inkscape:export-xdpi="96"
   inkscape:export-ydpi="96"
   xmlns:inkscape="http://www.inkscape.org/namespaces/inkscape"
   xmlns:sodipodi="http://sodipodi.sourceforge.net/DTD/sodipodi-0.dtd"
   xmlns="http://www.w3.org/2000/svg"
   xmlns:svg="http://www.w3.org/2000/svg">
  <sodipodi:namedview
     id="namedview7"
     pagecolor="#ffffff"
     bordercolor="#666666"
     borderopacity="1.0"
     inkscape:pageshadow="2"
     inkscape:pageopacity="0.0"
     inkscape:pagecheckerboard="0"
     inkscape:document-units="mm"
     showgrid="false"
     inkscape:zoom="0.28869916"
     inkscape:cx="1002.774"
     inkscape:cy="791.48136"
     inkscape:window-width="1850"
     inkscape:window-height="1027"
     inkscape:window-x="39"
     inkscape:window-y="25"
     inkscape:window-maximized="0"
     inkscape:current-layer="g290" />
  <defs
     id="defs2">
    <marker
       id="DistanceX"
       orient="auto"
       refX="0"
       refY="0"
       style="overflow:visible">
      <path
         d="M 3,-3 -3,3 M 0,-5 V 5"
         style="stroke:#000000;stroke-width:0.5"
         id="path27" />
    </marker>
    <pattern
       id="Hatch"
       patternUnits="userSpaceOnUse"
       width="8"
       height="8"
       x="0"
       y="0">
      <path
         d="M8 4 l-4,4"
         stroke="#000000"
         stroke-width="0.25"
         linecap="square"
         id="path30" />
      <path
         d="M6 2 l-4,4"
         stroke="#000000"
         stroke-width="0.25"
         linecap="square"
         id="path32" />
      <path
         d="M4 0 l-4,4"
         stroke="#000000"
         stroke-width="0.25"
         linecap="square"
         id="path34" />
    </pattern>
    <symbol
       id="*Model_Space" />
    <symbol
       id="*Paper_Space" />
    <symbol
       id="*Paper_Space0" />
    <symbol
       id="A$Ccdda3631" />
    <symbol
       id="A$C35078f85" />
  </defs>
  <g
     inkscape:label="Layer 1"
     inkscape:groupmode="layer"
     id="layer1">
    <g
       id="g290"
       transform="matrix(0.26458333,0,0,0.26458333,0.97696145,3.8578521)">
      <path
         d="m 262.67716,971.33858 a 17.007874,17.007874 0 1 0 -34.01574,0 17.007874,17.007874 0 1 0 34.01574,0 z"
         style="fill:none;stroke:#000000"
         id="path50" />
      <path
         d="m 332.59843,971.33858 a 11.338585,11.338585 0 1 0 -22.67717,0 11.338585,11.338585 0 1 0 22.67717,0 z"
         style="fill:none;stroke:#000000"
         id="path52" />
      <path
         d="m 408.18898,971.33858 a 11.338585,11.338585 0 1 0 -22.67717,0 11.338585,11.338585 0 1 0 22.67717,0 z"
         style="fill:none;stroke:#000000"
         id="path54" />
      <path
         d="m 489.44882,971.33858 a 17.007875,17.007875 0 1 0 -34.01575,0 17.007875,17.007875 0 1 0 34.01575,0 z"
         style="fill:none;stroke:#000000"
         id="path56" />
      <path
         d="m 602.83144,971.33858 a 17.007875,17.007875 0 1 0 -34.01575,0 17.007875,17.007875 0 1 0 34.01575,0 z"
         style="fill:none;stroke:#000000"
         id="path58" />
      <path
         d="m 338.26772,933.54331 a 17.007875,17.007875 0 1 0 -34.01575,0 17.007875,17.007875 0 1 0 34.01575,0 z"
         style="fill:none;stroke:#000000"
         id="path60" />
      <path
         d="m 413.85827,933.54331 a 17.007875,17.007875 0 1 0 -34.01575,0 17.007875,17.007875 0 1 0 34.01575,0 z"
         style="fill:none;stroke:#000000"
         id="path62" />
      <path
         d="m 262.67716,782.36221 a 17.007874,17.007874 0 1 0 -34.01574,0 17.007874,17.007874 0 1 0 34.01574,0 z"
         style="fill:none;stroke:#000000"
         id="path64" />
      <path
         d="m 370.3937,782.36221 a 11.338583,11.338583 0 1 0 -22.67716,0 11.338583,11.338583 0 1 0 22.67716,0 z"
         style="fill:none;stroke:#000000"
         id="path66" />
      <path
         d="m 376.06299,744.56693 a 17.007875,17.007875 0 1 0 -34.01575,0 17.007875,17.007875 0 1 0 34.01575,0 z"
         style="fill:none;stroke:#000000"
         id="path68" />
      <path
         d="m 489.44882,782.36221 a 17.007875,17.007875 0 1 0 -34.01575,0 17.007875,17.007875 0 1 0 34.01575,0 z"
         style="fill:none;stroke:#000000"
         id="path70" />
      <path
         d="m 602.83144,782.36221 a 17.007875,17.007875 0 1 0 -34.01575,0 17.007875,17.007875 0 1 0 34.01575,0 z"
         style="fill:none;stroke:#000000"
         id="path72" />
      <path
         d="m 262.67716,593.38583 a 17.007874,17.007874 0 1 0 -34.01574,0 17.007874,17.007874 0 1 0 34.01574,0 z"
         style="fill:none;stroke:#000000"
         id="path74" />
      <path
         d="m 370.3937,593.38583 a 11.338583,11.338583 0 1 0 -22.67716,0 11.338583,11.338583 0 1 0 22.67716,0 z"
         style="fill:none;stroke:#000000"
         id="path76" />
      <path
         d="m 376.06299,555.59055 a 17.007875,17.007875 0 1 0 -34.01575,0 17.007875,17.007875 0 1 0 34.01575,0 z"
         style="fill:none;stroke:#000000"
         id="path78" />
      <path
         d="m 489.44882,593.38583 a 17.007875,17.007875 0 1 0 -34.01575,0 17.007875,17.007875 0 1 0 34.01575,0 z"
         style="fill:none;stroke:#000000"
         id="path80" />
      <path
         d="m 602.83144,593.38583 a 17.007875,17.007875 0 1 0 -34.01575,0 17.007875,17.007875 0 1 0 34.01575,0 z"
         style="fill:none;stroke:#000000"
         id="path82" />
      <path
         d="m 848.50073,971.33858 a 17.007875,17.007875 0 1 0 -34.01575,0 17.007875,17.007875 0 1 0 34.01575,0 z"
         style="fill:none;stroke:#000000"
         id="path84" />
      <path
         d="m 848.50073,857.95276 a 17.007875,17.007875 0 1 0 -34.01575,0 17.007875,17.007875 0 1 0 34.01575,0 z"
         style="fill:none;stroke:#000000"
         id="path86" />
      <path
         d="m 748.34325,914.64567 a 11.338585,11.338585 0 1 0 -22.67717,0 11.338585,11.338585 0 1 0 22.67717,0 z"
         style="fill:none;stroke:#000000"
         id="path88" />
      <path
         d="m 937.31962,914.64567 a 11.338583,11.338583 0 1 0 -22.67716,0 11.338583,11.338583 0 1 0 22.67716,0 z"
         style="fill:none;stroke:#000000"
         id="path90" />
      <path
         d="m 754.01254,876.85039 a 17.007875,17.007875 0 1 0 -34.01575,0 17.007875,17.007875 0 1 0 34.01575,0 z"
         style="fill:none;stroke:#000000"
         id="path92" />
      <path
         d="m 942.98892,876.85039 a 17.007875,17.007875 0 1 0 -34.01575,0 17.007875,17.007875 0 1 0 34.01575,0 z"
         style="fill:none;stroke:#000000"
         id="path94" />
      <path
         d="m 848.50073,593.38583 a 17.007875,17.007875 0 1 0 -34.01575,0 17.007875,17.007875 0 1 0 34.01575,0 z"
         style="fill:none;stroke:#000000"
         id="path96" />
      <path
         d="m 848.50073,706.77165 a 17.007875,17.007875 0 1 0 -34.01575,0 17.007875,17.007875 0 1 0 34.01575,0 z"
         style="fill:none;stroke:#000000"
         id="path98" />
      <path
         d="m 937.31962,650.07874 a 11.338583,11.338583 0 1 0 -22.67716,0 11.338583,11.338583 0 1 0 22.67716,0 z"
         style="fill:none;stroke:#000000"
         id="path100" />
      <path
         d="m 748.34325,650.07874 a 11.338585,11.338585 0 1 0 -22.67717,0 11.338585,11.338585 0 1 0 22.67717,0 z"
         style="fill:none;stroke:#000000"
         id="path102" />
      <path
         d="m 754.01254,612.28346 a 17.007875,17.007875 0 1 0 -34.01575,0 17.007875,17.007875 0 1 0 34.01575,0 z"
         style="fill:none;stroke:#000000"
         id="path104" />
      <path
         d="m 942.98892,612.28346 a 17.007875,17.007875 0 1 0 -34.01575,0 17.007875,17.007875 0 1 0 34.01575,0 z"
         style="fill:none;stroke:#000000"
         id="path106" />
      <path
         d="m 1094.17,593.38583 a 17.007874,17.007874 0 1 0 -34.0157,0 17.007874,17.007874 0 1 0 34.0157,0 z"
         style="fill:none;stroke:#000000"
         id="path108" />
      <path
         d="m 1201.8866,593.38583 a 11.3386,11.3386 0 1 0 -22.6772,0 11.3386,11.3386 0 1 0 22.6772,0 z"
         style="fill:none;stroke:#000000"
         id="path110" />
      <path
         d="m 1207.5558,555.59055 a 17.007874,17.007874 0 1 0 -34.0157,0 17.007874,17.007874 0 1 0 34.0157,0 z"
         style="fill:none;stroke:#000000"
         id="path112" />
      <path
         d="m 1320.9417,593.38583 a 17.0079,17.0079 0 1 0 -34.0158,0 17.0079,17.0079 0 1 0 34.0158,0 z"
         style="fill:none;stroke:#000000"
         id="path114" />
      <path
         d="m 1094.17,782.36221 a 17.007874,17.007874 0 1 0 -34.0157,0 17.007874,17.007874 0 1 0 34.0157,0 z"
         style="fill:none;stroke:#000000"
         id="path116" />
      <path
         d="m 1207.5558,782.36221 a 17.007874,17.007874 0 1 0 -34.0157,0 17.007874,17.007874 0 1 0 34.0157,0 z"
         style="fill:none;stroke:#000000"
         id="path118" />
      <path
         d="m 1320.9417,782.36221 a 17.0079,17.0079 0 1 0 -34.0158,0 17.0079,17.0079 0 1 0 34.0158,0 z"
         style="fill:none;stroke:#000000"
         id="path120" />
      <path
         d="m 1434.3275,782.36221 a 17.007874,17.007874 0 1 0 -34.0157,0 17.007874,17.007874 0 1 0 34.0157,0 z"
         style="fill:none;stroke:#000000"
         id="path122" />
      <path
         d="m 1094.17,971.33858 a 17.007874,17.007874 0 1 0 -34.0157,0 17.007874,17.007874 0 1 0 34.0157,0 z"
         style="fill:none;stroke:#000000"
         id="path124" />
      <path
         d="m 1207.5558,971.33858 a 17.007874,17.007874 0 1 0 -34.0157,0 17.007874,17.007874 0 1 0 34.0157,0 z"
         style="fill:none;stroke:#000000"
         id="path126" />
      <path
         d="m 1320.9417,971.33858 a 17.0079,17.0079 0 1 0 -34.0158,0 17.0079,17.0079 0 1 0 34.0158,0 z"
         style="fill:none;stroke:#000000"
         id="path128" />
      <path
         d="m 1434.3275,971.33858 a 17.007874,17.007874 0 1 0 -34.0157,0 17.007874,17.007874 0 1 0 34.0157,0 z"
         style="fill:none;stroke:#000000"
         id="path130" />
      <path
         d="m 1542.044,971.33858 a 11.338583,11.338583 0 1 0 -22.6771,0 11.338583,11.338583 0 1 0 22.6771,0 z"
         style="fill:none;stroke:#000000"
         id="path132" />
      <path
         d="m 1547.7133,933.54331 a 17.007874,17.007874 0 1 0 -34.0157,0 17.007874,17.007874 0 1 0 34.0157,0 z"
         style="fill:none;stroke:#000000"
         id="path134" />
      <path
         d="m 1661.0992,593.38583 a 17.0079,17.0079 0 1 0 -34.0158,0 17.0079,17.0079 0 1 0 34.0158,0 z"
         style="fill:none;stroke:#000000"
         id="path136" />
      <path
         d="m 1661.0992,328.8189 a 17.0079,17.0079 0 1 0 -34.0158,0 17.0079,17.0079 0 1 0 34.0158,0 z"
         style="fill:none;stroke:#000000"
         id="path138" />
      <path
         d="m 1661.0992,139.84252 a 17.0079,17.0079 0 1 0 -34.0158,0 17.0079,17.0079 0 1 0 34.0158,0 z"
         style="fill:none;stroke:#000000"
         id="path140" />
      <path
         d="m 1547.7133,139.84252 a 17.007874,17.007874 0 1 0 -34.0157,0 17.007874,17.007874 0 1 0 34.0157,0 z"
         style="fill:none;stroke:#000000"
         id="path142" />
      <path
         d="m 1434.3275,139.84252 a 17.007874,17.007874 0 1 0 -34.0157,0 17.007874,17.007874 0 1 0 34.0157,0 z"
         style="fill:none;stroke:#000000"
         id="path144" />
      <path
         d="m 1320.9417,139.84252 a 17.0079,17.0079 0 1 0 -34.0158,0 17.0079,17.0079 0 1 0 34.0158,0 z"
         style="fill:none;stroke:#000000"
         id="path146" />
      <path
         d="m 1207.5558,139.84252 a 17.007874,17.007874 0 1 0 -34.0157,0 17.007874,17.007874 0 1 0 34.0157,0 z"
         style="fill:none;stroke:#000000"
         id="path148" />
      <path
         d="m 1094.17,139.84252 a 17.007874,17.007874 0 1 0 -34.0157,0 17.007874,17.007874 0 1 0 34.0157,0 z"
         style="fill:none;stroke:#000000"
         id="path150" />
      <path
         d="m 980.78419,139.84252 a 17.007875,17.007875 0 1 0 -34.01575,0 17.007875,17.007875 0 1 0 34.01575,0 z"
         style="fill:none;stroke:#000000"
         id="path152" />
      <path
         d="m 867.39837,139.84252 a 17.007875,17.007875 0 1 0 -34.01575,0 17.007875,17.007875 0 1 0 34.01575,0 z"
         style="fill:none;stroke:#000000"
         id="path154" />
      <path
         d="m 1434.3275,328.8189 a 17.007874,17.007874 0 1 0 -34.0157,0 17.007874,17.007874 0 1 0 34.0157,0 z"
         style="fill:none;stroke:#000000"
         id="path156" />
      <path
         d="m 1320.9417,328.8189 a 17.0079,17.0079 0 1 0 -34.0158,0 17.0079,17.0079 0 1 0 34.0158,0 z"
         style="fill:none;stroke:#000000"
         id="path158" />
      <path
         d="m 1207.5558,328.8189 a 17.007874,17.007874 0 1 0 -34.0157,0 17.007874,17.007874 0 1 0 34.0157,0 z"
         style="fill:none;stroke:#000000"
         id="path160" />
      <path
         d="m 1094.17,328.8189 a 17.007874,17.007874 0 1 0 -34.0157,0 17.007874,17.007874 0 1 0 34.0157,0 z"
         style="fill:none;stroke:#000000"
         id="path162" />
      <path
         d="M 321.25984,347.41417 H 699.2126 V 120.64252 H 321.25984 Z"
         style="fill:none;stroke:#000000"
         id="path164" />
      <path
         d="m 243.77953,234.02835 a 17.007875,17.007875 0 1 0 -34.01575,0 17.007875,17.007875 0 1 0 34.01575,0 z"
         style="fill:none;stroke:#000000"
         id="path166" />
      <path
         d="m 243.77953,120.64252 a 17.007875,17.007875 0 1 0 -34.01575,0 17.007875,17.007875 0 1 0 34.01575,0 z"
         style="fill:none;stroke:#000000"
         id="path168" />
      <path
         d="m 243.77953,347.41417 a 17.007875,17.007875 0 1 0 -34.01575,0 17.007875,17.007875 0 1 0 34.01575,0 z"
         style="fill:none;stroke:#000000"
         id="path170" />
      <path
         d="M 0,1122.5197 H 1889.7638 V -11.338583 H 0 Z"
         style="fill:none;stroke:#000000"
         id="path172" />
      <path
         d="m 857.95276,370.3937 h 98.26771 v -83.14961 h -98.26771 z"
         style="fill:none;stroke:#000000"
         id="path174" />
      <path
         d="m 736.70551,106.12913 a 5.6692915,5.6692915 0 1 0 -11.33858,0 5.6692915,5.6692915 0 1 0 11.33858,0 z"
         style="fill:none;stroke:#000000"
         id="path176" />
      <path
         d="m 295.10551,106.12913 a 5.6692915,5.6692915 0 1 0 -11.33858,0 5.6692915,5.6692915 0 1 0 11.33858,0 z"
         style="fill:none;stroke:#000000"
         id="path178" />
      <path
         d="m 295.10551,400.32756 a 5.6692915,5.6692915 0 1 0 -11.33858,0 5.6692915,5.6692915 0 1 0 11.33858,0 z"
         style="fill:none;stroke:#000000"
         id="path180" />
      <path
         d="m 736.70551,400.32756 a 5.6692915,5.6692915 0 1 0 -11.33858,0 5.6692915,5.6692915 0 1 0 11.33858,0 z"
         style="fill:none;stroke:#000000"
         id="path182" />
      <path
         d="m 969.44882,272.12598 a 5.6692915,5.6692915 0 1 0 -11.33858,0 5.6692915,5.6692915 0 1 0 11.33858,0 z"
         style="fill:none;stroke:#000000"
         id="path184" />
      <path
         d="m 856.06299,272.12598 a 5.6692915,5.6692915 0 1 0 -11.33858,0 5.6692915,5.6692915 0 1 0 11.33858,0 z"
         style="fill:none;stroke:#000000"
         id="path186" />
      <path
         d="m 969.44882,385.51181 a 5.6692915,5.6692915 0 1 0 -11.33858,0 5.6692915,5.6692915 0 1 0 11.33858,0 z"
         style="fill:none;stroke:#000000"
         id="path188" />
      <path
         d="m 856.06299,385.51181 a 5.6692915,5.6692915 0 1 0 -11.33858,0 5.6692915,5.6692915 0 1 0 11.33858,0 z"
         style="fill:none;stroke:#000000"
         id="path190" />
      <path
         d="m 1657.3228,782.36221 a 13.22835,13.22835 0 1 0 -26.4567,0 13.22835,13.22835 0 1 0 26.4567,0 z"
         style="fill:none;stroke:#000000"
         id="path192" />
      <g
         inkscape:label="Defpoints"
         id="g196" />
    </g>
  </g>
</svg>
